<?xml version="1.0" standalone="no"?>
<!DOCTYPE svg PUBLIC "-//W3C//DTD SVG 20010904//EN"
 "http://www.w3.org/TR/2001/REC-SVG-20010904/DTD/svg10.dtd">
<svg version="1.0" xmlns="http://www.w3.org/2000/svg"
 width="638.000000pt" height="479.000000pt" viewBox="0 0 638.000000 479.000000"
 preserveAspectRatio="xMidYMid meet">
<metadata>
Created by potrace 1.16, written by Peter Selinger 2001-2019
</metadata>
<g transform="translate(0.000000,479.000000) scale(0.100000,-0.100000)"
fill="#000000" stroke="none">
<path d="M2512 1913 c-7 -12 -39 -83 -72 -159 -33 -76 -68 -146 -77 -156 -15
-17 -14 -18 18 -18 30 0 34 3 35 28 1 15 9 44 18 65 l16 37 64 0 64 0 28 -65
c28 -65 29 -65 69 -65 33 1 37 2 21 11 -15 10 -50 77 -155 304 -17 37 -18 38
-29 18z"/>
<path d="M1875 1750 l0 -170 26 0 25 0 1 138 c2 209 -1 192 31 192 93 0 133
-112 55 -154 -26 -14 -26 -15 -6 -16 32 0 82 49 89 87 5 27 1 37 -24 63 -29
29 -34 30 -114 30 l-83 0 0 -170z"/>
<path d="M2195 1750 l0 -170 30 0 30 0 0 170 0 170 -30 0 -30 0 0 -170z"/>
<path d="M2690 1908 c0 -10 19 -12 70 -10 l71 4 -3 -161 -3 -161 28 0 27 0 0
161 0 161 65 -4 c47 -2 65 0 65 10 0 9 -39 12 -160 12 -121 0 -160 -3 -160
-12z"/>
<path d="M3070 1908 c0 -10 18 -12 65 -10 l65 4 0 -161 0 -161 28 0 27 0 -3
161 -3 161 71 -4 c51 -2 70 0 70 10 0 9 -39 12 -160 12 -121 0 -160 -3 -160
-12z"/>
<path d="M3485 1750 l0 -170 98 0 c71 0 97 3 97 13 0 8 -20 12 -67 12 l-68 0
-3 73 -3 74 61 -4 c43 -2 60 1 60 10 0 8 -19 12 -60 12 l-60 0 0 68 0 67 65
-3 c42 -3 65 0 65 7 0 7 -33 11 -92 11 l-93 0 0 -170z"/>
<path d="M3805 1750 l0 -170 103 0 c75 0 102 3 102 13 0 9 -19 11 -68 9 -51
-3 -71 0 -81 11 -9 11 -11 56 -9 161 l3 146 -25 0 -25 0 0 -170z"/>
<path d="M4125 1750 l0 -171 104 3 c122 3 151 23 34 23 l-78 0 0 158 0 157
-30 0 -30 0 0 -170z"/>
<path d="M4435 1750 l0 -170 31 0 32 0 -10 43 c-5 23 -8 99 -6 170 l5 127 -26
0 -26 0 0 -170z"/>
</g>
</svg>
