<?xml version="1.0" standalone="no"?>
<!DOCTYPE svg PUBLIC "-//W3C//DTD SVG 20010904//EN"
 "http://www.w3.org/TR/2001/REC-SVG-20010904/DTD/svg10.dtd">
<svg version="1.0" xmlns="http://www.w3.org/2000/svg"
 width="320.000000pt" height="320.000000pt" viewBox="0 0 320.000000 320.000000"
 preserveAspectRatio="xMidYMid meet">
<metadata>
Created by potrace 1.16, written by Peter Selinger 2001-2019
</metadata>
<g transform="translate(0.000000,320.000000) scale(0.100000,-0.100000)"
fill="#000000" stroke="none">
<path d="M0 1600 l0 -1600 1600 0 1600 0 0 1600 0 1600 -1600 0 -1600 0 0
-1600z m1725 1282 c-3 -8 -5 -23 -6 -35 l0 -22 -9 23 c-8 18 -17 22 -50 22
l-40 0 0 -115 c0 -96 3 -115 15 -115 8 0 15 -5 15 -11 0 -6 -7 -8 -16 -5 -9 3
-37 6 -62 7 -26 0 -40 3 -32 6 26 10 30 26 30 131 l0 102 -45 0 c-33 0 -45 -4
-45 -15 0 -8 -4 -15 -10 -15 -11 0 -12 6 -4 35 5 19 13 20 135 20 103 0 128
-3 124 -13z m-365 -41 c0 -23 -1 -24 -13 -7 -12 17 -18 17 -50 7 -21 -7 -37
-14 -37 -16 0 -16 55 -193 63 -203 6 -7 16 -11 24 -8 7 3 13 2 13 -3 0 -5 -20
-14 -44 -20 -24 -6 -52 -14 -62 -18 -18 -6 -18 -5 -2 13 17 19 16 25 -11 120
-18 63 -33 100 -43 102 -24 5 -68 -16 -68 -33 0 -8 -4 -15 -10 -15 -5 0 -10
14 -10 30 0 17 3 29 8 28 16 -5 222 56 222 66 0 22 20 -20 20 -43z m579 -2
c56 -15 78 -26 75 -35 -14 -47 -17 -50 -23 -25 -4 16 -19 28 -44 37 -41 14
-44 12 -60 -57 -6 -24 -3 -27 24 -33 24 -4 35 -2 45 11 17 22 17 11 2 -38 -11
-40 -27 -53 -24 -22 2 23 -52 43 -64 23 -14 -23 -22 -82 -12 -92 5 -5 25 -11
46 -15 27 -4 41 -1 56 12 23 21 25 16 8 -20 -7 -17 -18 -25 -27 -22 -9 3 -53
15 -98 28 -46 12 -83 25 -83 30 0 4 8 6 17 5 14 -1 24 21 47 102 26 88 28 106
17 124 -11 18 -11 20 3 15 8 -3 51 -16 95 -28z m259 -109 c41 -26 44 -30 22
-30 -21 -1 -34 -17 -79 -92 l-54 -91 27 -24 c30 -25 56 -29 87 -12 20 10 20
10 4 -15 -10 -14 -22 -26 -28 -26 -5 0 -46 21 -89 47 -66 39 -76 48 -60 54 27
10 125 175 119 200 -7 25 -6 24 51 -11z m-1164 -92 c57 -47 108 -81 120 -80
16 1 17 -1 5 -12 -43 -40 -116 -67 -78 -29 7 7 2 17 -20 32 -28 20 -32 21 -60
7 -16 -9 -32 -19 -34 -23 -11 -17 7 -65 26 -72 18 -7 16 -9 -16 -28 l-35 -21
4 31 c3 18 -6 80 -19 139 -22 97 -22 138 0 138 4 0 52 -37 107 -82z m1421 -99
c34 -35 37 -40 16 -34 -20 6 -34 -4 -97 -66 -41 -41 -74 -79 -74 -85 0 -24 62
-66 87 -59 30 7 29 0 -3 -21 -25 -17 -25 -17 -82 42 -83 87 -88 94 -62 87 17
-5 38 10 96 68 51 50 73 80 70 92 -7 27 7 20 49 -24z m-1722 13 c-3 -13 18
-43 68 -96 60 -65 76 -76 96 -71 12 3 23 4 23 2 0 -1 -21 -23 -46 -47 -38 -37
-45 -41 -39 -21 6 20 -4 35 -71 102 -62 62 -83 78 -99 73 -12 -4 -2 9 25 34
25 23 46 41 47 42 0 0 -1 -8 -4 -18z m976 -118 c6 -34 20 -66 33 -79 13 -13
29 -31 37 -40 11 -14 15 -14 22 -3 6 9 12 4 21 -19 7 -18 16 -33 20 -33 5 0
13 -11 18 -24 6 -18 18 -26 42 -28 28 -3 34 -8 43 -41 6 -21 16 -41 22 -45 6
-4 12 -16 15 -27 3 -17 11 -20 53 -20 l50 0 6 -50 c6 -56 18 -95 28 -95 4 0
15 6 26 14 11 7 39 13 62 13 26 0 52 8 71 22 17 11 41 21 55 21 25 0 26 -2 25
-67 0 -103 2 -115 19 -150 15 -27 15 -35 3 -57 -18 -35 -19 -95 -1 -134 14
-31 14 -36 -2 -64 -9 -16 -17 -35 -17 -41 0 -6 -12 -23 -26 -38 -25 -26 -25
-28 -9 -58 20 -39 15 -56 -30 -104 -25 -27 -43 -37 -65 -37 -16 0 -30 -4 -30
-10 0 -17 -24 -11 -83 21 -45 24 -63 29 -91 24 -32 -7 -34 -9 -24 -31 6 -13
34 -37 62 -53 47 -26 53 -34 74 -92 33 -94 31 -103 -31 -133 -29 -14 -58 -36
-65 -47 -12 -18 -20 -21 -60 -16 -26 3 -53 0 -63 -6 -15 -9 -31 -5 -83 22 -44
22 -71 31 -86 26 -27 -9 -47 8 -73 64 l-21 45 27 48 c15 26 27 61 27 76 0 40
-38 91 -67 92 -34 0 -49 -220 -20 -277 9 -16 23 -35 31 -42 18 -15 20 -29 6
-51 -7 -12 -13 -11 -34 10 -36 33 -46 78 -46 207 0 61 -4 114 -9 117 -12 8
-39 -24 -52 -62 -9 -26 -8 -48 6 -105 l16 -72 -31 -57 c-32 -59 -89 -105 -112
-92 -7 4 -22 15 -34 26 -19 17 -23 17 -57 3 -49 -20 -70 -19 -92 5 -13 15 -31
20 -67 20 -39 0 -51 4 -55 18 -2 9 -25 29 -51 42 -65 35 -66 62 -8 160 24 41
41 79 39 84 -3 5 -46 6 -94 2 -59 -4 -89 -3 -89 4 0 5 -20 30 -44 54 -55 57
-61 78 -30 115 l24 29 -25 16 c-15 10 -25 26 -25 40 0 12 -7 38 -16 55 -19 37
-7 81 22 81 10 0 14 6 11 14 -3 7 -8 34 -12 59 -6 38 -4 47 12 57 13 9 18 21
15 40 -2 15 1 31 7 34 6 4 11 26 11 50 0 68 23 80 92 46 23 -11 51 -17 61 -14
11 3 29 2 41 -4 11 -5 35 -13 51 -18 24 -7 37 -23 67 -84 44 -87 67 -110 114
-110 30 0 34 3 34 27 0 21 -18 44 -80 103 -44 41 -80 83 -80 93 0 10 -4 26 -9
35 -4 9 -11 39 -14 65 -6 61 9 77 70 77 42 0 45 1 39 23 -3 13 1 32 8 43 7 10
19 36 25 57 12 34 15 37 51 37 30 0 40 5 45 20 3 11 12 20 18 20 7 0 19 15 27
33 12 26 21 32 46 33 22 0 40 9 58 30 l25 29 1 -53 c0 -60 10 -83 51 -127 25
-27 32 -62 19 -95 -1 -3 -1 -26 0 -52 1 -33 -3 -48 -11 -48 -23 0 -69 53 -70
79 0 23 -1 24 -8 6 -7 -18 -10 -15 -25 19 -19 46 -21 76 -3 76 7 0 8 3 2 8 -6
4 -16 18 -23 32 -10 22 -11 19 -6 -22 l6 -48 -33 -2 -34 -1 31 -4 c21 -3 35
-12 42 -28 10 -21 8 -25 -16 -34 l-27 -11 26 5 c22 4 36 -5 83 -52 58 -58 69
-82 39 -84 -17 -1 -17 -2 0 -6 27 -7 23 -53 -5 -54 l-23 -2 23 -4 c19 -4 22
-11 22 -49 0 -24 -3 -44 -6 -44 -17 0 -83 63 -122 115 -44 59 -44 60 -20 66
22 7 22 7 -4 8 -22 1 -32 10 -48 42 -17 32 -19 44 -9 55 9 12 9 13 -3 9 -9 -4
-19 5 -29 27 -8 17 -21 34 -29 36 -10 2 -11 1 -4 -5 12 -8 54 -95 54 -110 0
-4 16 -34 35 -66 19 -32 33 -63 30 -68 -4 -5 1 -9 9 -9 8 0 21 -10 27 -22 7
-13 21 -29 32 -37 20 -14 20 -15 1 -23 -17 -7 -16 -8 3 -4 13 2 32 -4 44 -15
12 -10 26 -19 31 -19 4 0 8 -45 8 -100 0 -55 -3 -100 -7 -100 -14 0 -83 53
-83 64 0 6 7 23 16 36 13 21 11 20 -9 -3 -21 -25 -25 -26 -36 -13 -7 9 -11 22
-8 30 4 10 1 13 -8 10 -8 -3 -30 15 -54 46 l-42 52 27 37 27 36 -31 -29 c-18
-16 -33 -28 -35 -25 -1 2 -10 14 -20 26 -16 18 -17 25 -6 45 11 21 11 22 -4
10 -20 -17 -40 -6 -34 18 3 12 0 17 -8 14 -6 -3 -18 2 -25 11 -12 14 -12 20 0
38 13 22 13 22 -9 3 -20 -18 -21 -18 -21 -1 0 10 -3 15 -7 12 -3 -4 -16 1 -27
10 -12 10 -6 1 13 -19 35 -38 35 -41 -14 -51 -11 -3 -2 -3 20 -2 38 3 42 0 77
-48 32 -43 35 -53 22 -60 -9 -5 -28 -4 -47 2 -25 9 -29 9 -19 -1 6 -6 30 -12
53 -13 38 -1 44 -5 85 -60 24 -32 44 -62 44 -66 0 -4 -19 -19 -42 -33 -24 -14
-38 -26 -32 -26 6 0 28 12 49 26 l38 25 26 -25 c29 -29 27 -33 -26 -51 -21 -8
-30 -14 -20 -15 10 0 31 7 47 15 28 14 31 14 74 -17 l45 -31 -52 -34 c-59 -38
-52 -45 8 -8 22 13 43 25 48 25 14 0 7 -33 -10 -46 -17 -13 -17 -14 0 -8 15 6
17 -2 17 -70 l0 -76 -27 6 c-16 3 -62 22 -103 42 -72 36 -75 39 -80 77 l-5 40
-8 -33 -7 -34 -30 22 c-16 12 -31 31 -31 43 -1 17 -2 18 -6 5 -6 -23 -8 -22
-50 3 -31 20 -34 26 -31 60 2 20 0 35 -4 33 -5 -3 -8 -14 -8 -25 0 -23 -17
-25 -41 -3 -15 13 -17 29 -14 87 4 68 2 66 -11 -10 -6 -43 -22 -42 -67 5 -36
37 -37 40 -33 97 2 33 2 49 0 35 -3 -14 -7 -36 -10 -49 l-5 -24 -33 32 c-23
22 -35 29 -38 20 -4 -11 -12 -11 -43 -2 -23 7 -34 8 -28 2 6 -6 31 -13 55 -17
38 -6 52 -15 82 -50 20 -24 36 -48 36 -53 0 -18 -81 -8 -136 16 -62 28 -84 33
-41 9 15 -8 27 -18 27 -23 0 -16 -30 -33 -46 -27 -14 5 -15 4 -4 -9 12 -14 16
-13 40 10 39 37 51 33 45 -17 -5 -41 -4 -41 5 -11 10 31 12 32 68 32 31 0 66
-3 76 -6 20 -5 20 -6 0 -20 -18 -15 -18 -15 6 -10 20 5 36 -3 74 -37 l49 -42
-47 -14 c-44 -12 -48 -12 -73 11 -25 23 -25 23 -14 2 16 -31 15 -33 -24 -33
-27 0 -37 6 -49 28 -8 15 -15 23 -16 19 0 -5 5 -17 10 -27 10 -18 8 -19 -22
-15 -26 4 -29 3 -13 -4 11 -5 34 -10 52 -10 25 -1 33 -7 41 -28 l10 -28 1 28
c1 21 6 27 24 27 12 0 49 7 81 15 l58 15 79 -47 c43 -26 79 -51 79 -55 0 -5
-28 -9 -62 -10 l-63 -1 60 -6 60 -6 -45 -14 c-25 -7 -73 -16 -107 -19 -63 -5
-63 -5 -63 22 0 14 -4 26 -10 26 -5 0 -10 -11 -10 -25 0 -23 -4 -25 -42 -26
-24 -1 -35 -3 -25 -6 12 -3 17 -15 18 -41 1 -38 3 -36 13 11 6 24 11 28 34 25
23 -3 28 -8 32 -43 l5 -40 8 43 c6 34 11 43 25 40 9 -2 20 -16 23 -33 l7 -30
1 33 c1 26 5 32 24 33 12 0 53 10 92 22 l69 23 64 -26 64 -25 -43 -37 -43 -37
-46 24 -45 25 30 -25 c17 -14 33 -25 38 -25 18 0 4 -18 -28 -36 l-35 -18 -41
39 c-23 22 -37 31 -31 20 6 -11 20 -29 31 -39 28 -25 26 -34 -6 -47 -23 -8
-30 -7 -41 8 -13 17 -14 17 -8 -4 6 -18 1 -25 -23 -37 -40 -21 -48 -20 -54 6
-4 13 -13 32 -22 43 -15 18 -15 17 0 -12 27 -56 21 -67 -50 -98 -36 -15 -64
-29 -62 -31 2 -2 27 5 56 17 28 12 54 19 57 16 4 -3 1 -20 -5 -38 -6 -18 -9
-34 -6 -37 2 -3 10 17 17 43 12 43 18 50 65 73 29 14 55 23 58 20 3 -3 1 -27
-6 -52 -6 -26 -9 -49 -7 -51 3 -3 11 22 19 56 14 58 17 62 67 90 29 16 57 29
62 29 5 0 11 -17 13 -37 3 -35 4 -34 5 9 2 45 5 50 55 87 28 21 59 41 68 43 9
1 44 -15 78 -37 59 -39 61 -42 63 -85 1 -44 1 -44 5 -8 7 62 56 41 67 -28 9
-54 34 -134 35 -112 1 9 -3 27 -8 40 -4 13 -11 42 -15 65 l-6 42 65 -37 c58
-32 65 -39 65 -66 0 -40 18 -104 31 -112 8 -4 8 -1 1 12 -14 26 -23 114 -12
114 5 0 30 -10 55 -22 40 -20 45 -25 45 -57 0 -43 7 -38 11 9 2 20 12 43 23
54 21 18 20 18 -8 1 -27 -16 -30 -16 -67 1 -22 9 -39 20 -39 24 0 15 32 33 68
41 l37 7 -33 1 c-19 1 -45 -8 -61 -20 -31 -23 -34 -22 -115 29 -30 19 -36 26
-25 34 10 7 8 8 -8 3 -17 -5 -41 6 -93 41 -39 26 -68 50 -64 53 3 3 20 12 37
19 l32 12 -35 -5 c-19 -2 -44 -6 -54 -7 -44 -6 -22 20 43 51 55 27 75 32 105
27 33 -6 36 -10 38 -44 1 -37 1 -37 5 -4 3 24 9 32 24 32 10 0 19 -3 19 -7 0
-5 28 -9 62 -11 35 -1 76 -6 93 -10 16 -4 44 -6 60 -4 26 4 27 5 10 12 -19 8
-19 8 5 18 16 7 19 11 9 11 -9 1 -23 -6 -30 -15 -10 -13 -24 -15 -63 -9 -67 8
-229 46 -239 54 -6 6 46 56 115 109 28 22 88 -2 89 -36 l2 -27 4 28 c4 22 8
27 21 21 9 -3 32 -6 50 -5 24 1 32 -3 33 -16 0 -14 2 -13 10 5 7 19 15 23 43
21 19 -2 39 0 43 5 4 5 -26 6 -67 3 -48 -3 -94 0 -129 10 -65 17 -68 18 -51
38 10 12 16 13 28 3 13 -11 15 -10 10 3 -9 24 11 42 31 27 13 -10 14 -10 4 2
-9 10 -10 17 -2 27 17 19 34 16 48 -9 l11 -23 -6 23 c-8 32 19 28 34 -5 9 -22
10 -23 6 -4 -4 14 -1 27 7 32 24 15 37 10 48 -18 l10 -28 -2 30 c-2 26 1 30
24 30 16 0 25 4 22 10 -4 12 -27 12 -54 1 -9 -4 -38 -6 -64 -4 l-47 3 29 37
c20 27 33 36 48 32 15 -4 17 -3 6 5 -12 8 -12 12 -2 25 10 12 18 13 33 5 11
-6 22 -8 26 -5 3 3 1 6 -4 6 -5 0 -15 4 -23 9 -12 8 -12 12 -2 24 9 11 27 15
64 12 29 -1 36 0 17 2 -53 7 -58 18 -24 55 l29 33 -31 -28 c-30 -27 -33 -28
-43 -10 -10 15 -10 14 -5 -10 5 -21 1 -34 -17 -53 l-23 -25 -13 23 c-7 13 -12
19 -12 13 -1 -5 3 -17 8 -24 6 -9 6 -22 0 -34 -10 -18 -11 -18 -32 0 -22 18
-22 18 -4 -3 15 -18 15 -23 4 -32 -8 -7 -18 -8 -22 -4 -5 4 -5 1 0 -6 10 -19
-56 -87 -67 -69 -21 32 5 175 30 170 6 -2 9 4 6 12 -4 8 -1 15 7 15 7 0 9 3 6
7 -4 3 -1 13 6 21 9 13 9 14 0 8 -7 -4 -25 -28 -40 -54 -24 -40 -27 -57 -28
-127 0 -90 -12 -109 -48 -78 l-22 18 20 -23 20 -24 -29 -25 -29 -25 -19 24
-18 23 10 -29 c10 -26 8 -33 -15 -55 l-26 -26 -20 25 c-17 21 -19 22 -10 3 17
-33 14 -39 -30 -74 l-40 -32 5 34 c3 19 7 54 10 79 5 49 -1 32 -23 -65 -11
-45 -32 -75 -53 -75 -4 0 -5 30 -3 68 l5 67 -16 -76 c-13 -63 -20 -78 -40 -87
l-24 -12 0 114 0 114 53 41 c30 22 82 70 116 106 57 59 67 65 103 65 l39 0
-35 -34 c-46 -43 -47 -61 -4 -52 43 8 76 42 118 118 l34 63 -40 -42 c-38 -40
-45 -43 -93 -43 -60 0 -61 -3 21 91 92 107 109 132 36 54 -69 -73 -77 -78 -93
-65 -17 14 -17 13 -6 -8 11 -21 10 -27 -10 -48 -17 -18 -25 -21 -32 -12 -6 9
-7 8 -3 -5 4 -12 -6 -30 -28 -54 -31 -34 -35 -36 -52 -23 -18 14 -18 14 -4 -4
13 -16 12 -20 -10 -37 -14 -10 -34 -27 -45 -37 -11 -9 -30 -26 -42 -35 l-21
-18 -7 86 -7 86 33 35 c33 34 63 38 81 10 5 -7 8 -7 8 2 0 8 -9 16 -20 19 -26
7 -26 8 11 55 21 25 37 37 47 33 11 -4 12 -2 4 7 -7 10 -3 25 15 56 24 40 29
43 57 39 31 -5 31 -5 4 6 l-26 10 35 56 c19 31 29 50 22 44 -10 -10 -17 -9
-33 5 -19 17 -19 17 -3 -7 15 -23 15 -26 -4 -53 -11 -15 -25 -25 -31 -22 -6 4
-8 2 -5 -4 4 -5 4 -17 1 -26 -5 -14 -9 -14 -23 -4 -14 11 -14 11 -4 -3 10 -12
10 -19 -1 -35 -14 -18 -15 -18 -38 1 l-23 20 18 -21 c22 -26 21 -30 -4 -66
-17 -23 -24 -27 -31 -16 -7 9 -8 8 -4 -6 5 -14 -4 -30 -31 -58 -20 -21 -41
-38 -45 -38 -4 0 -8 43 -8 95 0 92 1 95 23 95 16 0 18 3 9 9 -11 6 -8 12 10
27 13 11 35 33 48 51 19 27 26 31 44 22 20 -10 20 -9 2 5 -17 13 -17 19 -6 46
7 16 17 30 22 30 5 0 6 4 3 10 -3 5 1 23 10 41 9 17 14 33 12 35 -3 3 -13 -15
-23 -40 -11 -25 -22 -46 -26 -46 -5 0 -8 -10 -8 -21 0 -17 -5 -20 -21 -16 -16
4 -18 3 -9 -8 14 -17 1 -48 -17 -41 -8 4 -11 1 -7 -5 6 -11 -43 -69 -59 -69
-11 0 3 164 15 168 23 9 70 57 84 86 13 28 13 29 0 11 -28 -35 -69 -75 -79
-75 -11 0 0 84 12 88 5 1 17 10 27 18 18 14 18 14 -4 4 -23 -11 -24 -10 -20
17 3 15 3 22 1 15 -3 -8 -12 -11 -20 -8 -13 5 -14 4 -4 -8 7 -8 9 -25 5 -40
-5 -23 -9 -25 -23 -14 -13 10 -14 10 -3 -2 13 -16 17 -70 4 -70 -11 0 -46 39
-61 67 -6 12 -11 45 -11 73 0 46 2 51 19 45 13 -4 26 5 47 32 68 90 84 89 103
-3z m-1052 -56 c28 -26 32 -88 7 -109 -15 -12 -16 -11 -10 7 9 30 -28 74 -64
74 -24 0 -60 -25 -49 -33 62 -47 172 -117 182 -117 7 0 18 5 25 12 22 22 12
-4 -20 -55 -30 -45 -33 -47 -36 -26 -5 34 -163 143 -193 134 -21 -7 -21 -7 -3
25 61 103 114 132 161 88z m1987 -68 c31 -47 31 -50 8 -43 -11 2 -54 -20 -110
-56 -71 -47 -90 -64 -86 -78 7 -22 -25 16 -51 60 -16 27 -16 28 2 17 16 -11
32 -4 111 46 58 38 92 65 92 77 0 25 4 22 34 -23z m-1984 -1162 c0 -4 -6 -5
-14 -2 -14 5 -123 -112 -113 -122 6 -6 144 13 158 22 4 2 6 11 2 19 -10 27 6
16 22 -15 19 -37 19 -38 -8 -33 -12 2 -72 -2 -132 -11 -60 -8 -113 -12 -117
-8 -3 4 29 51 73 106 43 54 79 106 79 115 0 15 49 -55 50 -71z m1881 22 c-29
-7 -46 -31 -38 -54 12 -29 38 -30 88 -3 57 32 69 33 103 6 36 -28 37 -89 1
-124 -22 -23 -27 -24 -52 -12 l-28 12 30 3 c17 2 36 8 43 14 17 15 15 53 -4
69 -14 12 -24 10 -65 -14 -60 -33 -83 -34 -114 -2 -30 29 -31 59 -5 103 18 30
22 31 43 20 l22 -12 -24 -6z m-51 -226 c54 -32 76 -109 47 -160 -12 -22 -104
-124 -111 -124 -2 0 -2 8 1 18 6 25 -134 154 -159 148 -30 -7 -20 9 46 72 58
56 68 62 106 62 23 0 54 -7 70 -16z m-1571 -124 c26 -18 29 -28 41 -125 7 -58
16 -107 19 -110 4 -2 24 23 45 56 29 45 36 63 27 72 -25 25 -9 26 29 1 42 -28
49 -36 28 -33 -29 3 -38 -5 -94 -91 -33 -49 -62 -90 -65 -90 -10 0 -16 31 -29
145 -7 55 -16 104 -20 108 -4 4 -26 -22 -50 -58 -37 -57 -42 -70 -32 -86 16
-25 9 -24 -33 4 -38 24 -45 38 -16 30 28 -7 135 152 120 179 -12 23 -4 23 30
-2z m1262 -91 c17 -17 20 -29 15 -60 l-6 -38 56 -26 c30 -14 60 -23 65 -20 5
4 9 2 9 -4 0 -6 -12 -17 -27 -25 -25 -13 -32 -11 -90 17 -34 17 -65 28 -69 25
-3 -4 4 -25 17 -47 17 -31 27 -40 41 -35 31 10 20 -4 -25 -31 -49 -28 -65 -32
-47 -11 17 22 -86 199 -112 190 -32 -10 -19 2 40 38 89 55 102 58 133 27z
m-841 -136 c0 -30 -18 -39 -22 -11 -2 16 -14 26 -38 34 -34 12 -35 11 -47 -20
-6 -17 -12 -37 -12 -43 -1 -18 46 -28 64 -13 12 10 15 10 15 -1 -1 -23 -28
-76 -29 -57 -1 17 -29 38 -49 38 -11 0 -32 -53 -32 -81 0 -13 12 -22 40 -30
35 -11 42 -10 60 6 22 20 26 14 10 -16 -14 -25 -23 -24 -122 8 -51 17 -75 28
-62 31 17 2 27 21 51 100 18 56 27 101 22 107 -21 22 -4 22 71 -3 68 -22 80
-30 80 -49z m550 -51 c30 -48 65 -98 78 -111 13 -13 22 -25 20 -27 -2 -2 -23
-6 -46 -10 -36 -6 -41 -4 -36 9 3 8 -2 26 -11 40 -15 23 -19 24 -55 15 -37
-10 -40 -13 -40 -44 0 -25 4 -34 17 -34 27 0 2 -17 -37 -25 -34 -7 -34 -7 -19
11 11 13 20 55 28 128 10 98 21 136 40 136 3 0 31 -39 61 -88z m-392 48 c21 0
32 -4 25 -8 -9 -6 -5 -19 16 -51 l29 -43 26 35 c29 38 32 53 14 60 -7 3 4 6
25 6 20 1 37 -3 37 -9 0 -5 -4 -10 -9 -10 -5 0 -25 -22 -45 -49 -31 -41 -36
-57 -36 -101 0 -39 5 -56 18 -66 15 -12 10 -13 -40 -14 -57 0 -85 13 -48 23
16 4 20 14 20 50 0 37 -8 57 -42 106 -23 34 -45 61 -50 61 -4 0 -8 5 -8 11 0
6 7 8 16 5 9 -3 32 -6 52 -6z"/>
<path d="M2340 904 l-31 -27 23 -24 c13 -14 49 -48 82 -76 l58 -51 25 29 c42
49 15 122 -59 161 -39 20 -62 17 -98 -12z"/>
</g>
</svg>
