<?xml version="1.0" standalone="no"?>
<!DOCTYPE svg PUBLIC "-//W3C//DTD SVG 20010904//EN"
 "http://www.w3.org/TR/2001/REC-SVG-20010904/DTD/svg10.dtd">
<svg version="1.0" xmlns="http://www.w3.org/2000/svg"
 width="2194.000000pt" height="2864.000000pt" viewBox="0 0 2194.000000 2864.000000"
 preserveAspectRatio="xMidYMid meet">
<metadata>
Created by potrace 1.16, written by Peter Selinger 2001-2019
</metadata>
<g transform="translate(0.000000,2864.000000) scale(0.100000,-0.100000)"
fill="#000000" stroke="none">
<path d="M11295 27880 c-16 -4 -67 -8 -112 -9 -48 0 -83 -5 -83 -11 0 -5 17
-11 38 -11 30 -2 32 -3 10 -6 -16 -2 -28 -11 -28 -19 0 -10 -13 -14 -44 -14
-25 0 -48 -4 -51 -10 -3 -5 -19 -10 -34 -10 -15 0 -36 -7 -47 -15 -10 -8 -32
-15 -47 -15 -15 0 -38 -7 -51 -15 -13 -9 -28 -15 -32 -14 -10 3 -64 -11 -79
-20 -5 -3 -16 -6 -24 -8 -8 -1 -17 -6 -20 -10 -3 -5 -22 -15 -41 -23 -48 -20
-113 -69 -139 -106 -25 -36 -26 -44 -6 -44 8 0 15 6 15 13 0 7 9 18 20 25 11
7 20 19 20 27 0 8 6 15 13 15 14 0 68 23 97 40 31 19 117 58 155 70 22 7 59
21 83 31 23 11 56 19 71 19 16 0 31 4 33 9 2 5 27 6 56 4 60 -6 67 -21 25 -58
l-28 -23 28 -26 c15 -14 27 -34 27 -46 0 -13 7 -20 20 -20 17 0 20 -7 20 -40
0 -33 -3 -40 -20 -40 -17 0 -20 -7 -20 -39 0 -22 6 -42 13 -45 10 -5 10 -7 0
-12 -10 -4 -13 -45 -13 -154 l0 -148 -36 -7 c-26 -4 -33 -10 -26 -17 7 -7 20
-7 43 1 18 6 35 9 37 6 3 -3 0 -5 -6 -5 -7 0 -12 -6 -12 -12 0 -9 -20 -14 -62
-15 -85 -2 -161 -16 -165 -29 -6 -17 25 -26 47 -14 10 6 22 10 25 10 4 0 5
-47 3 -105 -3 -101 -2 -106 17 -103 19 3 20 11 20 108 l0 105 46 1 c25 0 50 4
56 7 6 4 13 1 15 -6 7 -19 -3 -87 -13 -87 -5 0 -9 -24 -9 -53 0 -29 -5 -58
-10 -63 -6 -6 -12 -26 -13 -45 -3 -38 -24 -73 -44 -75 -7 -1 -26 -2 -43 -2
-22 -2 -30 -7 -30 -21 0 -17 -10 -19 -109 -23 -86 -2 -113 -7 -128 -21 -11 -9
-24 -17 -29 -17 -5 0 -15 -9 -22 -20 -7 -12 -18 -19 -26 -18 -17 4 -86 -23
-86 -34 0 -4 -20 -8 -44 -8 -37 0 -50 -6 -77 -34 -44 -43 -63 -108 -53 -178 4
-29 9 -46 11 -37 2 9 22 22 44 28 36 11 40 16 36 37 -2 13 -1 24 4 24 4 0 19
11 33 25 14 14 30 25 36 25 5 0 10 15 10 34 l0 34 77 7 c43 4 83 13 90 21 8 8
34 14 57 14 27 0 48 6 56 15 7 8 20 15 29 15 9 0 29 7 45 15 15 8 49 15 75 15
48 0 131 -32 131 -50 0 -5 9 -10 20 -10 17 0 20 -7 20 -40 0 -22 5 -40 10 -40
6 0 10 -18 10 -40 0 -22 5 -40 10 -40 6 0 10 -18 10 -40 0 -33 -3 -40 -20 -40
-18 0 -20 -7 -20 -80 0 -61 -3 -80 -14 -80 -11 0 -15 -58 -21 -319 -8 -346 -2
-481 21 -481 10 0 14 -12 14 -40 0 -29 -4 -40 -15 -40 -11 0 -15 -11 -15 -40
0 -29 4 -40 15 -40 11 0 15 -11 15 -40 0 -28 -4 -40 -14 -40 -15 0 -28 -88
-14 -96 13 -8 -49 -64 -71 -64 -15 0 -20 -4 -15 -12 4 -7 -2 -5 -12 6 -14 13
-15 20 -6 23 6 3 12 13 12 23 0 10 6 20 13 23 9 3 9 8 -2 21 -10 12 -17 14
-25 6 -5 -5 -20 -10 -32 -10 -17 0 -20 5 -16 25 3 20 0 25 -16 25 -26 0 -42
27 -35 61 3 19 -2 33 -18 48 -14 13 -25 17 -29 11 -4 -6 -12 1 -19 16 -9 20
-17 25 -34 20 -19 -4 -28 3 -52 42 -25 41 -30 44 -33 24 -2 -13 9 -40 26 -66
17 -25 36 -71 42 -103 16 -79 50 -201 65 -238 9 -19 11 -43 6 -65 -4 -22 -1
-51 8 -80 8 -25 16 -51 17 -58 2 -7 15 -17 29 -22 20 -8 25 -16 25 -45 0 -19
-1 -35 -3 -35 -2 0 -18 11 -36 24 -33 25 -33 25 -54 5 -11 -10 -26 -19 -33
-19 -15 0 -50 -18 -92 -48 l-32 -23 -31 22 c-41 29 -49 16 -49 -79 0 -53 -4
-78 -16 -89 -11 -12 -18 -13 -27 -4 -45 45 -124 -60 -95 -125 16 -34 37 -30
82 16 22 22 45 40 53 40 7 0 13 5 13 11 0 6 9 18 20 27 12 10 23 35 26 57 5
30 17 50 47 77 45 42 64 42 39 -2 -9 -16 -13 -32 -10 -36 10 -9 75 23 81 40 3
8 21 17 39 21 18 4 44 16 57 26 13 11 29 19 35 19 18 0 66 24 66 33 0 5 5 5
10 2 6 -4 17 -1 25 5 8 6 23 9 34 5 10 -3 22 -1 26 5 10 16 25 1 25 -26 0 -15
-6 -24 -15 -24 -12 0 -15 -16 -15 -80 0 -47 4 -80 10 -80 15 0 12 -26 -5 -40
-13 -11 -15 -41 -12 -186 3 -140 1 -174 -10 -174 -17 0 -18 -77 0 -83 9 -3 8
-9 -4 -23 -8 -10 -20 -30 -26 -44 -13 -32 -95 -59 -118 -40 -8 7 -47 13 -87
13 l-73 2 -3 -32 c-2 -18 -8 -33 -13 -33 -26 0 5 -18 42 -24 22 -4 47 -12 54
-19 7 -6 23 -21 36 -33 13 -11 38 -38 54 -59 17 -22 38 -47 48 -57 9 -10 17
-25 17 -33 0 -11 12 -15 45 -15 l45 0 0 -40 c0 -22 5 -40 10 -40 13 0 13 -77
0 -82 -16 -5 -18 -307 -3 -316 7 -4 14 -27 15 -50 3 -45 4 -45 73 -59 l40 -7
-60 -8 c-171 -22 -217 -29 -295 -42 -226 -39 -212 -36 -330 -77 -140 -48 -163
-57 -171 -72 -5 -8 -11 -268 -15 -578 -4 -415 -9 -581 -19 -629 -7 -36 -16
-94 -20 -130 -9 -88 -32 -193 -57 -260 -11 -30 -29 -77 -39 -105 -11 -27 -19
-58 -19 -68 0 -10 -4 -16 -10 -12 -5 3 -19 -16 -31 -42 -12 -26 -30 -60 -41
-75 -11 -16 -17 -28 -13 -28 10 0 -37 -81 -77 -134 -21 -27 -38 -52 -38 -57 0
-4 -9 -11 -20 -14 -11 -3 -20 -12 -20 -19 0 -8 -15 -20 -32 -27 -18 -7 -43
-23 -55 -35 -12 -13 -32 -25 -43 -29 -11 -3 -20 -13 -20 -21 0 -8 -4 -14 -10
-14 -12 0 -166 -126 -196 -162 -7 -7 -31 -29 -55 -48 -24 -19 -56 -48 -71 -63
-14 -16 -32 -34 -38 -40 -97 -99 -146 -157 -198 -229 -26 -37 -51 -67 -57 -68
-5 0 -19 -18 -29 -40 -11 -22 -23 -40 -28 -40 -4 0 -8 -6 -8 -14 0 -7 -7 -19
-16 -27 -8 -7 -24 -29 -34 -48 -10 -20 -28 -46 -39 -58 -12 -12 -21 -27 -21
-32 0 -5 -12 -32 -26 -58 -74 -134 -163 -316 -159 -323 3 -5 1 -11 -4 -15 -6
-3 -15 -20 -20 -38 -5 -18 -24 -70 -41 -117 -17 -47 -35 -105 -41 -130 -5 -24
-14 -49 -19 -54 -6 -6 -10 -24 -10 -40 0 -17 -9 -65 -20 -106 -63 -232 -83
-494 -77 -975 4 -297 3 -364 -9 -387 -12 -23 -13 -120 -4 -655 5 -345 12 -707
15 -803 7 -266 43 -2686 60 -4055 13 -1032 26 -2141 35 -3008 9 -779 13 -938
26 -985 12 -44 15 -109 14 -277 0 -121 0 -236 1 -255 1 -19 1 -100 0 -179 0
-79 1 -147 4 -151 3 -5 1 -10 -4 -12 -6 -2 -6 -21 -1 -48 6 -37 17 -257 25
-540 0 -30 -3 -63 -9 -72 -7 -12 -6 -24 2 -40 8 -16 11 -103 10 -303 0 -154 2
-365 6 -470 7 -234 26 -1438 23 -1555 -2 -85 9 -631 18 -870 5 -131 24 -238
52 -299 10 -20 18 -40 18 -46 1 -5 4 -17 7 -25 4 -8 16 -44 28 -80 48 -148 46
-145 149 -225 138 -108 145 -113 304 -208 76 -46 137 -74 210 -97 56 -17 136
-42 177 -55 77 -24 192 -53 565 -140 89 -21 453 -72 680 -95 110 -11 238 -24
285 -30 52 -6 199 -8 375 -4 280 6 303 8 673 60 348 49 493 76 652 119 30 8
102 26 159 40 57 14 109 29 115 34 6 4 88 48 181 96 94 49 197 102 230 119 57
30 125 91 167 149 21 30 18 33 -15 16 -22 -12 -22 -12 -3 10 11 11 24 21 31
21 25 0 185 178 185 206 0 8 5 14 10 14 6 0 10 30 10 71 0 50 3 68 11 63 8 -5
10 0 6 17 -3 13 -2 53 4 89 6 36 12 153 14 261 10 564 29 1174 36 1177 12 5
11 82 0 82 -6 0 -8 62 -6 147 2 82 6 510 9 953 3 443 9 875 13 960 7 173 8
218 17 750 6 370 14 598 20 609 2 3 0 35 -6 71 -5 41 -5 96 1 150 6 47 13 312
16 590 3 278 8 660 11 850 11 687 23 1626 21 1670 -3 82 0 291 18 1270 4 179
8 485 10 680 5 450 24 2006 30 2415 2 171 10 569 16 885 15 766 16 834 17
1195 1 171 2 317 2 325 6 79 -1 321 -10 365 -2 6 1 24 5 40 5 21 4 26 -3 16
-7 -10 -10 9 -10 66 0 45 -5 90 -10 100 -9 17 -23 103 -27 168 -1 17 -12 55
-24 85 -11 30 -21 68 -21 83 0 15 -7 41 -15 57 -9 16 -17 42 -19 57 -1 16 -13
47 -24 70 -12 23 -22 54 -22 68 0 14 -6 25 -14 25 -8 0 -16 16 -20 40 -3 22
-11 40 -16 40 -6 0 -10 13 -10 29 0 17 -4 33 -10 36 -5 3 -10 13 -10 22 0 9
-7 21 -15 27 -9 6 -17 24 -18 39 -1 15 -7 31 -13 35 -18 12 -74 100 -74 116 0
9 -4 16 -9 16 -5 0 -11 10 -15 23 -3 12 -21 46 -41 75 -19 30 -35 56 -35 59 0
4 -12 22 -27 42 -16 20 -27 39 -26 43 2 4 -6 12 -17 18 -11 6 -20 17 -20 25 0
9 -9 23 -21 33 -11 9 -27 30 -36 46 -16 30 -31 47 -153 172 -44 45 -80 89 -80
98 0 13 -6 16 -22 11 -16 -4 -19 -4 -9 3 17 12 6 32 -19 32 -20 0 -60 44 -60
66 0 8 -4 13 -8 12 -4 -2 -25 3 -45 11 -30 12 -37 20 -37 43 0 26 -3 28 -38
28 -26 0 -41 6 -50 20 -7 11 -19 20 -27 20 -8 0 -15 6 -15 13 0 16 -32 44 -57
49 -10 2 -18 10 -18 18 0 9 -8 14 -18 12 -9 -2 -17 1 -17 6 0 5 -18 17 -40 27
-25 11 -39 24 -36 31 3 8 0 11 -10 7 -14 -5 -74 50 -74 68 0 5 -6 9 -14 9 -7
0 -21 11 -30 25 -15 23 -15 25 3 35 27 14 41 13 41 -5 0 -8 6 -12 14 -9 18 7
9 34 -10 34 -8 0 -14 6 -14 13 0 19 -24 67 -33 67 -5 0 -5 5 -2 11 4 6 -3 13
-14 16 -15 4 -20 11 -16 23 3 10 0 22 -7 27 -15 10 -78 128 -78 148 0 7 -3 15
-7 17 -17 7 -52 96 -57 145 -4 28 -16 77 -28 110 -12 34 -20 78 -19 105 1 26
-5 89 -13 140 -16 102 -27 408 -30 874 -2 294 -2 301 -24 329 -56 71 -201 135
-309 135 -26 0 -75 4 -107 10 -97 16 -480 41 -631 42 -147 1 -151 4 -20 16
l80 7 5 240 c3 132 2 242 -2 243 -14 6 -9 322 5 322 7 0 18 24 25 54 10 44 10
58 -2 80 -8 16 -17 63 -21 107 -4 43 -11 79 -16 79 -5 0 -9 18 -9 40 0 22 -4
40 -10 40 -5 0 -10 18 -10 40 0 22 5 40 11 40 7 0 10 32 8 93 -2 81 2 103 29
182 38 105 40 145 12 163 -21 13 -28 42 -10 42 17 0 11 30 -10 57 -11 14 -20
39 -20 54 0 26 2 28 19 17 15 -9 22 -8 36 6 20 20 18 25 -16 28 -37 4 -59 63
-58 157 0 42 3 70 6 63 9 -24 22 -1 17 31 l-5 32 20 -35 c23 -40 30 -165 9
-172 -6 -2 -8 -10 -4 -17 5 -7 14 -10 21 -7 15 5 45 -50 45 -81 0 -10 6 -25
12 -31 10 -10 10 -15 1 -20 -8 -5 -9 -13 -3 -22 6 -8 10 -23 10 -32 0 -37 35
-99 58 -105 26 -6 37 0 30 19 -3 7 -6 18 -7 23 -2 6 -8 17 -15 25 -24 28 -59
144 -58 190 1 25 2 61 2 80 1 65 -18 268 -30 326 -11 52 -10 59 6 71 10 7 23
13 29 13 7 0 17 12 24 26 10 24 10 26 -6 19 -51 -21 -55 -19 -51 16 3 34 3 34
50 31 59 -4 97 12 52 22 -16 3 -60 8 -97 10 -37 2 -74 10 -83 16 -8 7 -24 14
-37 15 -12 1 -26 3 -31 4 -5 0 -2 9 7 19 10 10 14 22 10 25 -3 4 -1 7 5 7 16
0 16 92 0 216 -9 76 -9 97 1 104 19 11 4 320 -15 320 -11 0 -14 25 -14 120 0
113 1 120 20 120 17 0 20 7 20 48 0 32 4 49 13 49 6 1 48 9 92 19 97 22 301
24 396 4 35 -8 67 -13 72 -12 4 1 7 -10 7 -26 0 -15 5 -34 10 -42 8 -12 10 -9
10 12 0 30 39 78 63 78 17 0 40 33 31 43 -3 3 -12 3 -19 1 -7 -3 -18 8 -25 25
-10 26 -15 29 -31 20 -21 -11 -59 -4 -59 12 0 5 -17 9 -38 9 -21 0 -42 4 -48
9 -8 8 -123 33 -279 61 -82 14 -147 43 -156 68 -5 13 -5 22 1 22 6 0 10 7 10
15 0 8 -4 15 -10 15 -15 0 -12 48 3 53 9 3 9 11 0 36 -10 27 -9 40 4 73 12 29
13 42 5 47 -8 5 -10 43 -7 127 3 93 1 124 -10 144 -8 14 -20 37 -27 53 -10 22
-19 27 -50 27 -34 0 -38 3 -38 25 0 18 -5 25 -20 25 -11 0 -20 4 -20 10 0 5 9
15 20 22 11 7 20 21 20 30 0 13 8 18 26 18 28 0 40 10 68 53 16 24 17 27 2 27
-13 0 -16 11 -16 50 0 28 0 53 0 58 -1 4 8 8 20 10 26 4 26 22 0 22 -11 0 -20
5 -20 10 0 6 -8 10 -18 10 -10 0 -22 4 -27 9 -10 10 -126 42 -141 40 -5 -1
-22 -5 -39 -9z m1663 -7738 c43 -28 67 -103 41 -129 -15 -15 -80 1 -96 24 -8
10 -20 26 -27 35 -23 27 -36 55 -36 78 0 20 4 21 48 14 26 -4 57 -14 70 -22z
m-214 -153 c82 -23 123 -101 71 -135 -60 -39 -155 26 -155 106 0 45 12 49 84
29z m-176 -569 c26 -19 42 -38 42 -51 0 -11 4 -28 10 -38 15 -29 -17 -88 -52
-95 -19 -4 -28 -12 -28 -25 0 -29 -45 -33 -71 -5 -11 12 -18 27 -15 33 7 10
-16 52 -41 79 -8 8 -9 19 -4 30 4 9 16 34 26 54 27 56 72 62 133 18z m-698
-3231 c0 -17 -3 -18 -20 -9 -11 6 -55 10 -98 8 l-77 -3 0 -100 0 -100 93 -3
c83 -2 92 -5 92 -22 0 -16 -5 -19 -27 -15 -16 2 -56 6 -90 9 -73 7 -73 6 -73
-102 0 -95 7 -120 32 -128 25 -7 144 -7 170 2 22 6 26 -24 4 -32 -7 -3 -74 -6
-147 -7 l-134 -2 0 265 0 265 138 -3 c129 -3 137 -4 137 -23z m274 21 c8 0 10
-61 8 -218 -2 -126 1 -229 7 -244 8 -22 18 -26 63 -32 29 -3 77 -2 106 2 57
10 71 3 46 -22 -13 -14 -37 -15 -162 -11 -135 5 -170 12 -143 30 14 8 15 454
2 475 -15 22 -2 33 31 26 17 -3 36 -6 42 -6z m-704 -26 c0 -20 -3 -24 -13 -16
-10 9 -121 16 -186 13 -11 -1 -12 -45 -10 -246 4 -239 4 -245 -16 -245 -11 0
-29 -3 -40 -6 -20 -5 -20 -1 -17 247 l3 252 -91 -5 c-65 -3 -94 -8 -101 -19
-6 -10 -9 -5 -9 18 l0 31 240 1 240 1 0 -26z m1182 -201 c-2 -181 0 -232 11
-247 20 -27 146 -35 182 -12 23 15 25 15 25 -1 -1 -42 -10 -44 -163 -41 -137
3 -163 7 -137 23 15 9 13 478 -2 493 -9 9 -1 12 38 12 l49 0 -3 -227z m418
218 c3 0 4 -112 2 -247 -2 -177 0 -250 9 -260 10 -12 2 -14 -45 -14 -54 0 -56
1 -46 20 7 13 11 105 10 258 -1 130 -1 240 0 244 0 6 41 5 70 -1z m-2173 -16
c7 -21 -4 -32 -19 -17 -13 13 -146 17 -164 4 -8 -5 -9 -78 -5 -250 l6 -242
-40 0 -40 0 3 244 c3 227 2 244 -15 248 -23 6 -142 -6 -165 -16 -14 -6 -18 -3
-18 11 0 11 3 23 7 26 3 4 105 7 225 7 188 0 219 -2 225 -15z m-677 -5 c0 -5
11 -33 24 -62 14 -29 40 -91 60 -138 95 -235 116 -276 147 -285 35 -11 9 -25
-47 -25 -51 0 -54 1 -54 25 0 14 -13 55 -30 90 -16 35 -30 69 -30 74 0 15 -30
21 -75 16 -22 -2 -54 -4 -70 -4 -29 -1 -32 -6 -59 -77 -23 -62 -26 -81 -17
-100 10 -24 10 -24 -41 -24 l-51 0 21 23 c18 19 151 357 183 465 9 29 39 46
39 22z m-368 -142 c-1 -79 1 -194 5 -255 l8 -113 -45 0 c-29 0 -40 3 -32 9 11
7 13 57 10 255 l-3 246 30 0 30 0 -3 -142z m-229 106 c74 -54 58 -177 -31
-236 -15 -10 -36 -18 -47 -17 -15 0 -10 5 15 17 20 10 43 33 54 53 18 33 19
42 7 92 -15 68 -38 90 -94 91 l-42 1 0 -195 c0 -107 2 -217 5 -245 4 -49 4
-50 -22 -50 l-27 0 -3 252 c-2 162 1 254 7 256 5 2 42 3 81 2 52 -1 77 -6 97
-21z m488 -2424 c73 -22 139 -40 145 -40 6 0 45 -11 85 -24 41 -13 92 -28 114
-34 76 -19 220 -65 240 -75 19 -10 19 -10 -3 -18 -14 -5 -20 -14 -16 -24 3 -8
1 -15 -4 -15 -16 0 -43 30 -37 41 4 5 -3 9 -14 9 -11 0 -22 -4 -25 -9 -8 -13
-43 -2 -50 15 -6 16 -36 19 -36 4 0 -5 -11 -12 -25 -16 -14 -3 -23 -9 -21 -13
3 -4 -4 -12 -14 -19 -16 -10 -27 -4 -77 43 -32 30 -67 55 -78 55 -12 0 -45
-24 -75 -55 -30 -30 -59 -55 -66 -55 -6 0 -19 9 -29 20 -12 13 -25 18 -40 14
-19 -5 -22 -2 -18 18 4 19 -7 34 -49 73 -78 71 -96 85 -116 85 -22 0 -114 -79
-106 -91 3 -5 -3 -12 -13 -15 -10 -3 -25 -9 -34 -14 -10 -5 -21 -4 -28 3 -14
14 -14 27 -1 27 5 0 33 17 62 38 71 51 170 111 185 112 6 0 71 -18 144 -40z
m237 -202 c5 -7 12 -24 14 -37 4 -32 35 -52 48 -31 7 12 12 12 29 -4 24 -22
26 -38 9 -65 -9 -16 -16 -17 -35 -8 -18 8 -27 7 -41 -6 -28 -26 -67 -21 -94
11 -19 23 -27 26 -41 18 -12 -8 -20 -7 -28 1 -10 10 -5 20 23 45 19 19 43 46
52 61 19 29 47 35 64 15z m-808 -107 c0 -6 -5 -13 -10 -16 -6 -4 -8 -15 -5
-26 4 -11 2 -19 -5 -19 -6 0 -8 5 -5 10 3 6 -1 10 -9 10 -19 0 -21 -21 -4 -38
17 -17 3 -25 -21 -13 -17 10 -20 9 -15 -4 4 -10 0 -15 -10 -15 -9 0 -16 -4
-16 -10 0 -20 -55 -61 -77 -57 -19 4 -24 -1 -29 -32 -3 -20 -14 -53 -25 -73
-11 -21 -19 -38 -17 -38 2 -1 28 -3 58 -6 30 -2 57 -9 58 -14 2 -6 10 -17 18
-24 8 -8 14 -19 14 -25 0 -19 -217 -231 -237 -231 -11 0 -48 20 -84 45 -35 25
-69 45 -74 45 -6 0 -16 9 -23 20 -7 11 -17 20 -24 20 -18 0 -58 41 -58 60 0 9
7 37 15 62 19 54 38 65 130 74 l66 7 41 61 c45 66 84 106 103 106 6 0 29 15
51 34 30 26 42 31 55 23 12 -8 27 -3 62 22 25 17 49 36 52 41 8 13 25 13 25 1z
m3327 -148 c15 -21 29 -40 30 -42 2 -2 12 -5 23 -6 38 -3 97 -62 111 -111 11
-36 24 -53 56 -75 23 -16 46 -29 51 -29 6 0 35 -22 64 -49 40 -36 58 -47 69
-40 8 5 19 9 24 9 6 0 5 -4 -1 -8 -7 -4 -13 -16 -16 -27 -3 -16 -12 -20 -41
-21 -21 0 -42 -5 -45 -11 -4 -6 -20 -9 -35 -6 l-28 5 22 16 22 15 -22 18 c-11
9 -17 19 -11 21 5 1 11 14 12 28 2 18 -2 25 -15 25 -10 0 -21 5 -25 12 -4 6
-26 19 -48 28 -35 14 -41 20 -36 38 5 20 4 20 -11 8 -15 -12 -17 -11 -17 6 0
10 5 24 12 31 6 6 8 15 4 19 -4 5 -14 -1 -22 -11 -12 -17 -14 -18 -14 -3 0 9
5 17 10 17 6 0 10 5 10 10 0 6 -7 10 -15 10 -8 0 -15 -4 -15 -10 0 -5 -7 -10
-16 -10 -13 0 -14 3 -5 14 15 18 3 46 -20 46 -15 0 -17 -5 -12 -30 4 -22 2
-30 -9 -30 -8 0 -18 3 -22 7 -4 4 -15 8 -23 8 -9 0 -18 6 -21 13 -3 9 5 12 24
10 43 -4 39 29 -6 54 -19 10 -34 23 -32 29 3 14 -23 39 -43 39 -9 0 -13 5 -10
10 3 6 19 10 35 10 22 0 36 -9 57 -37z m-1213 -369 c4 -11 17 -15 43 -13 21 1
56 2 78 0 35 -1 38 -3 23 -14 -10 -8 -13 -18 -9 -26 5 -7 6 -22 4 -32 -6 -23
14 -25 41 -4 22 17 72 20 80 6 11 -16 -55 -63 -78 -56 -48 15 -66 17 -66 6 0
-6 9 -16 20 -23 26 -17 25 -28 -3 -28 -12 0 -32 -7 -43 -14 -12 -8 -42 -16
-67 -17 -26 -2 -47 -6 -47 -11 0 -4 6 -8 13 -8 8 0 22 -9 32 -20 17 -19 16
-19 -21 -14 -58 8 -64 12 -64 34 0 11 -9 29 -21 41 -13 13 -18 27 -14 42 5 17
4 19 -4 7 -8 -11 -11 -12 -11 -2 0 7 -5 10 -10 7 -7 -4 -7 -12 0 -25 11 -21 0
-33 -23 -24 -8 3 -18 1 -22 -5 -3 -6 -10 -11 -16 -11 -18 0 -9 27 17 51 14 13
37 43 51 67 18 31 29 40 36 33 18 -18 27 -13 27 14 0 14 -2 25 -5 25 -17 0
-84 -52 -90 -70 -4 -11 -15 -20 -27 -20 -32 0 65 103 106 111 53 11 64 10 70
-7z m1806 -27 c14 -6 32 -20 40 -30 8 -10 29 -19 45 -21 41 -5 42 -5 26 -15
-12 -8 -11 -15 6 -43 15 -26 26 -33 51 -33 50 -1 47 -12 -5 -16 -92 -6 -193 1
-226 16 -17 8 -24 13 -13 12 15 -2 19 6 22 46 4 43 2 48 -21 57 -30 11 -31 18
-7 36 16 12 16 13 0 14 -9 0 -20 4 -23 10 -6 10 62 -11 105 -33z m-3885 -202
c2 -26 15 -70 28 -98 43 -89 67 -145 67 -156 0 -6 4 -11 10 -11 5 0 12 -17 16
-37 l7 -38 10 28 c6 20 6 37 -2 54 -7 14 -9 28 -6 31 3 3 5 0 5 -6 0 -7 5 -12
10 -12 13 0 2 73 -11 78 -4 2 -5 10 -2 18 3 8 -3 24 -12 34 -10 11 -15 23 -11
27 4 4 11 1 17 -7 9 -14 6 17 -6 56 -2 6 3 11 10 11 7 0 11 -5 9 -11 -2 -6 0
-36 4 -66 7 -51 9 -55 32 -52 52 6 85 1 96 -13 14 -18 24 -19 24 -2 0 15 37
40 70 47 23 5 25 9 23 53 -2 49 2 56 21 33 6 -7 28 -16 50 -19 37 -6 38 -6 21
13 -31 34 4 23 42 -14 20 -19 49 -37 64 -40 15 -3 30 -14 34 -25 5 -18 8 -18
33 -5 15 8 30 14 35 14 14 0 7 -27 -13 -45 -11 -10 -20 -23 -20 -30 0 -17 -45
-35 -87 -35 l-36 0 6 -46 c2 -26 1 -41 -3 -34 -6 10 -15 9 -44 -1 -27 -10 -39
-10 -48 -1 -12 12 -12 11 37 27 14 4 14 8 2 32 -8 16 -12 42 -10 61 7 44 -21
41 -46 -5 -17 -33 -13 -53 11 -62 21 -8 21 -8 -5 -13 -21 -4 -27 -1 -27 13 0
29 -17 31 -34 4 -16 -24 -16 -26 15 -56 18 -17 52 -38 76 -46 42 -14 45 -14
58 4 7 10 29 25 49 33 20 7 36 19 36 25 0 7 9 20 20 30 17 15 24 16 47 6 30
-14 45 -1 40 34 -1 14 5 21 22 23 32 5 44 -9 33 -39 -7 -18 -4 -31 12 -56 19
-29 24 -32 59 -26 37 6 37 5 31 -25 -5 -23 -1 -38 14 -57 15 -19 19 -32 13
-48 -10 -27 -39 -31 -136 -20 -62 7 -70 10 -75 32 -6 28 -19 35 -40 21 -12 -7
-12 -12 -2 -22 15 -15 16 -28 2 -28 -5 0 -10 7 -10 15 0 22 -59 20 -76 -2 -12
-16 -15 -16 -24 -3 -6 8 -8 25 -5 38 4 17 1 22 -15 22 -11 0 -29 8 -40 17 -24
21 -94 43 -138 43 -20 0 -31 4 -27 10 3 6 15 10 26 10 10 0 19 5 19 11 0 7 -9
9 -22 5 -13 -3 -29 -6 -36 -6 -7 0 -10 -5 -6 -11 3 -6 0 -15 -7 -20 -10 -6
-11 -9 -1 -9 6 0 12 -3 12 -7 0 -5 -26 -7 -57 -6 -60 2 -123 -12 -135 -31 -4
-6 -8 -21 -8 -34 0 -22 -3 -22 -52 -17 -77 9 -81 12 -75 43 3 15 1 35 -4 44
-6 12 -6 18 1 19 5 1 16 2 22 3 7 0 15 17 19 36 3 19 15 54 28 78 21 41 21 44
5 75 -9 18 -25 50 -36 72 -10 22 -23 48 -28 57 -12 20 -13 62 -3 72 13 13 25
-13 28 -59z m1835 -16 c0 -5 -5 -7 -11 -3 -7 4 -1 -7 11 -24 29 -39 29 -72 -1
-147 -21 -52 -28 -60 -51 -62 -20 -1 -28 3 -28 15 0 10 -9 34 -20 55 -27 51
-26 57 16 57 39 0 44 23 6 28 -41 6 -17 32 30 32 11 0 18 5 15 13 -5 15 10 47
23 47 6 0 10 -5 10 -11z m-2110 -30 c0 -27 31 -79 47 -79 8 0 13 -12 13 -30 0
-34 7 -38 26 -12 11 15 13 5 14 -65 0 -45 4 -84 9 -87 17 -11 19 -55 3 -61
-13 -5 -13 -8 -2 -18 10 -9 13 -9 17 1 3 6 9 12 14 12 5 0 4 -9 -3 -20 -7 -11
-24 -20 -37 -20 -21 0 -23 3 -18 34 3 19 1 36 -4 38 -5 2 -11 17 -13 33 -3 26
-7 30 -37 31 -18 1 -48 -2 -66 -6 -26 -6 -33 -4 -38 10 -3 9 -16 22 -28 29
-13 7 -28 21 -35 31 -9 15 -1 13 39 -10 27 -17 52 -30 54 -30 13 0 2 22 -22
44 -15 14 -24 28 -21 31 11 11 49 -19 54 -42 5 -18 13 -23 39 -23 41 0 67 9
59 21 -3 5 -18 9 -33 9 -34 0 -54 15 -79 60 -14 26 -17 42 -10 60 l9 24 24
-37 c14 -20 25 -43 25 -51 0 -20 19 -31 32 -18 9 9 -38 112 -63 137 -15 15
-11 25 11 25 14 0 20 -7 20 -21z m1603 -37 c14 7 27 2 57 -22 28 -22 46 -29
60 -25 14 4 20 2 20 -9 0 -8 9 -20 21 -26 34 -19 34 -3 0 26 -50 42 -28 40 34
-2 46 -32 54 -43 50 -61 -4 -18 -1 -23 16 -23 11 0 27 -7 35 -15 10 -9 25 -13
39 -9 20 5 24 2 22 -16 -1 -13 -12 -27 -24 -33 -25 -11 -32 -47 -8 -47 9 0 12
-6 9 -15 -4 -8 -15 -15 -25 -15 -16 0 -19 7 -19 41 0 39 0 40 -22 25 -12 -9
-31 -13 -44 -10 -13 3 -46 1 -74 -5 -28 -6 -76 -8 -106 -5 l-54 7 25 33 c14
18 25 36 25 41 0 14 -61 33 -79 24 -18 -10 -41 -4 -41 10 0 6 5 7 10 4 10 -6
14 7 11 33 -1 7 5 19 13 28 20 20 4 54 -24 54 -11 0 -20 4 -20 9 0 16 24 19
50 6 18 -9 31 -10 43 -3z m2437 -12 c0 -5 6 -10 14 -10 25 0 26 -16 5 -60 -18
-37 -19 -46 -8 -67 18 -33 31 -15 37 51 5 66 11 69 104 60 62 -6 68 -8 62 -26
-5 -17 -3 -19 15 -13 12 3 21 2 21 -3 0 -14 -46 -42 -70 -42 -11 0 -20 -4 -20
-10 0 -10 13 -14 43 -11 9 1 17 -3 17 -8 0 -6 -15 -12 -32 -13 -18 0 -37 -2
-43 -3 -5 -2 -22 -3 -37 -4 -31 -1 -83 -45 -73 -61 4 -6 20 1 43 20 39 32 77
38 106 17 14 -10 16 -20 11 -37 -6 -20 -9 -21 -17 -7 -11 20 -56 22 -80 3 -22
-16 -24 -46 -3 -46 8 0 15 5 15 10 0 18 18 10 23 -10 4 -17 0 -20 -23 -20 -16
0 -32 -4 -35 -10 -3 -5 -30 -10 -58 -9 -44 0 -49 2 -30 11 29 14 33 36 15 78
-11 26 -17 30 -19 18 -3 -10 -9 -18 -15 -18 -6 0 -8 -13 -6 -29 3 -23 -2 -32
-28 -51 -18 -12 -37 -19 -42 -16 -5 3 -32 6 -58 7 -64 2 -70 7 -43 35 12 13
18 24 13 24 -5 0 -3 4 5 9 11 7 10 13 -4 35 -10 14 -21 26 -26 26 -5 0 -9 9
-9 20 0 12 -9 22 -24 26 -16 4 -23 11 -19 20 4 11 -5 14 -35 14 -26 0 -42 5
-46 15 -4 11 -13 14 -33 9 -26 -7 -27 -6 -11 9 10 10 23 14 34 10 13 -5 16 -3
11 10 -7 19 -6 20 17 11 9 -3 13 -10 10 -15 -6 -11 31 -3 91 19 22 8 64 16 93
19 29 2 63 8 75 13 30 12 67 12 67 0z m-499 -80 c5 0 14 -11 19 -25 8 -22 12
-24 29 -13 24 15 39 4 22 -16 -9 -10 -9 -15 0 -18 13 -4 -19 -74 -38 -82 -7
-3 -28 1 -47 9 -20 8 -44 15 -54 15 -10 0 -23 10 -28 23 -12 25 -7 60 7 52 5
-4 9 1 9 9 0 9 -8 16 -17 17 -14 0 -13 3 5 11 12 6 22 15 22 19 0 5 12 22 28
38 l27 30 3 -34 c2 -19 8 -35 13 -35z m-393 -21 c26 -11 32 -19 30 -39 -2 -16
5 -31 20 -43 26 -22 28 -34 5 -33 -25 1 -28 -18 -3 -22 11 -2 20 -10 20 -17 0
-16 34 -38 44 -28 3 3 6 17 6 30 0 18 4 23 18 19 9 -2 36 -10 59 -17 24 -7 50
-20 58 -30 16 -17 24 -74 12 -85 -3 -3 -69 -10 -146 -15 -165 -10 -244 -22
-295 -43 -38 -16 -78 -13 -103 7 -17 13 -16 56 2 87 8 14 18 33 21 43 8 23 20
22 27 -2 3 -12 -1 -22 -12 -26 -15 -6 -14 -7 2 -16 9 -6 17 -21 17 -33 0 -26
27 -43 43 -27 7 7 6 15 -3 26 -7 8 -10 18 -7 22 4 3 3 11 -2 17 -16 21 -19 81
-5 101 13 18 14 17 14 -8 0 -36 25 -35 44 2 9 16 22 31 30 34 12 5 13 1 4 -23
-5 -16 -16 -30 -24 -32 -20 -4 -3 -24 29 -32 24 -6 27 -4 27 19 0 23 4 25 42
25 39 0 40 1 24 19 -15 16 -15 19 -1 31 9 7 13 15 10 18 -2 3 -12 -1 -21 -9
-15 -12 -16 -11 -9 11 4 14 12 28 17 31 5 3 -3 11 -17 17 -14 6 -25 19 -25 28
0 8 3 14 8 12 4 -3 22 -11 40 -19z m-1602 -97 c0 -4 4 -15 8 -24 4 -9 3 -33
-4 -53 -7 -20 -9 -42 -7 -50 6 -15 -16 -39 -26 -28 -4 3 -15 -1 -24 -9 -28
-23 -53 -29 -59 -14 -3 8 -28 17 -59 21 -31 3 -56 12 -59 20 -3 8 -22 15 -43
17 -21 2 -36 8 -34 13 2 6 12 9 22 7 9 -2 20 2 24 8 3 5 24 10 46 10 25 0 42
5 45 14 4 11 18 14 52 10 45 -4 48 -3 77 35 27 35 38 41 41 23z m-1519 -2484
c5 -7 21 -58 35 -113 15 -55 29 -108 33 -117 5 -12 2 -18 -8 -18 -8 0 -20 14
-26 30 -7 23 -16 30 -35 30 -15 0 -29 1 -33 3 -4 1 -14 -11 -21 -26 -30 -62
-31 -7 -2 102 17 63 30 115 30 117 0 9 18 3 27 -8z m4226 -149 c3 -155 -8
-163 -73 -55 -25 41 -47 72 -50 69 -3 -2 -5 -39 -5 -81 0 -62 -3 -77 -15 -77
-12 0 -15 23 -18 133 -2 121 -1 133 14 130 10 -2 36 -33 58 -70 23 -37 44 -68
49 -68 4 0 7 33 7 73 0 41 3 77 7 81 17 17 24 -20 26 -135z m-3988 109 c25
-19 27 -26 22 -69 -4 -32 -1 -58 9 -77 16 -34 6 -75 -21 -86 -25 -9 -103 -7
-109 3 -8 12 -17 231 -10 242 11 18 81 10 109 -13z m243 -14 c6 -2 12 -10 12
-19 0 -12 -12 -15 -55 -15 -54 0 -55 -1 -55 -29 0 -25 4 -30 38 -36 74 -14 79
-45 6 -45 -42 0 -44 -1 -44 -29 0 -28 3 -30 52 -38 38 -6 54 -13 56 -26 3 -14
-4 -17 -47 -17 -27 0 -61 4 -75 10 -26 9 -26 10 -26 128 0 65 3 121 6 125 6 5
107 -1 132 -9z m3477 -24 c36 -38 46 -119 21 -172 -43 -90 -166 -89 -196 3
-31 92 28 199 108 199 29 0 45 -7 67 -30z m-3262 -1 c47 -21 61 -89 27 -132
-25 -32 -25 -42 1 -78 11 -16 17 -33 14 -39 -11 -17 -46 9 -61 46 -14 32 -49
58 -66 47 -5 -2 -8 -22 -8 -44 0 -26 -4 -39 -14 -39 -18 0 -26 45 -26 156 l0
94 55 0 c30 0 65 -5 78 -11z m3002 -124 c0 -164 -10 -171 -85 -61 -28 42 -55
76 -60 76 -5 0 -10 -35 -12 -77 -3 -65 -6 -78 -20 -81 -16 -3 -18 8 -18 127 0
82 4 132 11 137 15 9 59 -35 94 -95 42 -70 58 -74 54 -14 -5 96 0 125 19 121
15 -3 17 -17 17 -133z m-2773 23 l53 -81 5 83 c5 88 21 114 40 65 12 -32 13
-215 1 -234 -6 -9 -14 -10 -24 -5 -16 9 -98 127 -110 157 -15 40 -27 13 -27
-63 0 -73 -2 -80 -20 -80 -19 0 -20 7 -20 123 0 68 3 127 6 130 14 14 46 -17
96 -95z m2448 77 c33 -17 37 -27 16 -44 -11 -9 -20 -9 -35 -2 -30 16 -55 13
-85 -10 -22 -17 -26 -28 -26 -71 0 -39 5 -55 22 -69 25 -22 67 -25 92 -6 26
19 17 52 -14 52 -18 0 -26 6 -28 23 -3 20 0 22 47 22 l51 0 0 -39 c0 -22 3
-46 6 -54 7 -20 -72 -67 -111 -67 -75 0 -137 88 -116 166 19 68 67 107 139
113 7 1 26 -6 42 -14z m-2120 -3 c30 -5 45 -12 45 -22 0 -11 -16 -16 -65 -20
-62 -5 -65 -6 -68 -32 -3 -27 -2 -28 42 -28 58 0 76 -8 76 -32 0 -17 -6 -19
-57 -17 l-58 3 -3 -31 c-3 -27 0 -31 29 -37 17 -3 49 -6 70 -6 33 0 39 -3 39
-20 0 -20 -5 -21 -87 -18 l-88 3 -3 119 c-1 66 0 126 2 133 6 14 52 16 126 5z
m283 -12 c40 0 47 -3 47 -20 0 -17 -7 -20 -40 -20 l-40 0 0 -111 c0 -109 0
-110 -22 -107 -22 3 -23 8 -26 111 l-3 107 -27 0 c-37 0 -56 14 -48 35 5 15
15 17 59 11 28 -3 73 -6 100 -6z m1423 -4 c3 -7 -11 -55 -31 -107 -20 -52 -39
-104 -42 -117 -7 -31 -41 -49 -58 -30 -17 19 -109 247 -102 254 15 16 53 -7
63 -38 40 -113 50 -137 57 -135 5 1 23 38 39 82 17 44 35 86 41 93 12 16 26
15 33 -2z m-1006 -9 c14 -7 26 -21 28 -30 3 -16 -2 -18 -57 -11 -51 5 -62 4
-67 -10 -9 -22 11 -43 49 -52 18 -3 44 -15 60 -26 35 -25 38 -77 5 -108 -39
-37 -158 -21 -166 23 -3 12 3 17 22 17 14 0 28 -4 31 -10 11 -18 73 -12 84 9
13 24 2 33 -64 58 -32 12 -55 28 -65 45 -13 25 -13 31 4 62 10 19 26 37 35 39
33 9 77 6 101 -6z m265 5 c11 -7 115 -240 115 -255 0 -20 -46 0 -58 26 -12 25
-18 27 -72 27 -56 0 -60 -2 -75 -30 -11 -21 -23 -30 -39 -30 -24 0 -24 1 25
113 27 61 54 122 59 135 10 22 26 28 45 14z m423 -82 c4 -103 -1 -125 -35
-156 -20 -19 -37 -24 -77 -24 -87 1 -106 30 -106 164 0 89 1 96 20 96 18 0 20
-7 20 -74 0 -76 12 -125 33 -138 22 -14 57 -8 77 12 17 17 20 33 20 108 0 92
4 105 30 100 12 -3 16 -21 18 -88z"/>
<path d="M10154 16078 c-16 -21 -56 -158 -51 -172 4 -9 23 -11 68 -8 35 2 65
6 67 7 4 4 -59 167 -68 178 -4 4 -11 2 -16 -5z"/>
<path d="M8959 13058 c-1 -7 -1 -17 0 -22 1 -5 -2 -12 -8 -15 -15 -10 -25 -61
-12 -62 6 -1 15 -2 20 -3 5 0 26 -15 45 -33 20 -17 36 -27 36 -22 0 5 7 9 15
9 8 0 15 4 15 10 0 5 11 12 25 16 23 6 25 11 25 59 l0 53 -57 -3 c-32 -1 -41
0 -20 2 59 7 43 23 -23 23 -41 0 -60 -4 -61 -12z"/>
<path d="M13140 9768 c-27 -29 -28 -108 -2 -131 42 -38 100 -7 109 59 10 80
-57 126 -107 72z"/>
<path d="M10793 27008 c-5 -7 -17 -38 -26 -68 -9 -30 -24 -77 -32 -103 -17
-54 -19 -77 -6 -77 15 0 28 23 35 62 6 35 28 58 56 58 6 0 18 -16 26 -35 9
-23 21 -35 34 -35 11 0 20 3 20 7 0 3 -16 39 -35 80 -19 40 -37 84 -41 98 -7
28 -17 32 -31 13z"/>
<path d="M10558 25932 c-21 -10 -38 -23 -38 -30 0 -8 -9 -16 -20 -19 -11 -3
-20 -12 -20 -19 0 -8 -10 -24 -21 -35 -21 -21 -22 -28 -16 -162 3 -96 9 -142
18 -147 9 -6 8 -12 -5 -26 -16 -15 -18 -31 -14 -111 2 -58 9 -97 16 -102 9 -5
9 -16 1 -42 -17 -52 -18 -679 -1 -679 7 0 12 15 12 40 0 35 3 40 23 41 12 0
16 3 10 6 -15 6 -17 39 -3 48 6 3 10 17 10 31 0 14 6 24 14 24 19 0 27 63 20
153 -5 51 -3 76 5 81 6 4 11 18 11 32 0 13 4 24 9 24 4 0 12 35 16 78 15 132
3 482 -16 482 -5 0 -9 18 -9 40 0 28 -4 40 -14 40 -9 0 -15 14 -18 40 -3 33 0
40 14 40 14 0 18 8 18 38 0 41 23 72 53 72 25 0 36 -30 30 -85 -4 -36 -1 -61
11 -83 9 -17 16 -42 16 -56 0 -53 21 -126 37 -126 12 0 14 7 9 28 -3 15 -11
71 -16 125 -11 121 -20 167 -30 167 -8 0 -33 56 -34 78 -1 12 -25 33 -36 31
-3 -1 -22 -8 -42 -17z"/>
<path d="M10437 24284 c-15 -16 -7 -44 13 -44 19 0 20 -6 19 -107 0 -60 -5
-146 -9 -193 -12 -112 -11 -254 1 -258 5 -2 10 -22 10 -45 1 -23 4 -32 6 -19
2 12 8 22 12 22 12 0 61 48 61 59 0 6 14 17 30 26 17 9 30 20 30 25 0 6 4 10
9 10 6 0 22 11 38 26 24 22 27 33 28 87 0 34 -4 70 -8 79 -7 14 -3 18 20 23
15 3 34 9 41 13 15 8 36 61 46 115 3 18 15 51 26 72 11 22 20 45 20 52 0 15
12 17 26 4 5 -6 14 -4 22 5 21 23 -45 43 -155 45 -89 1 -98 0 -111 -20 -8 -11
-23 -21 -32 -21 -10 0 -20 -4 -22 -8 -1 -5 -20 -12 -40 -15 -37 -6 -38 -5 -38
24 0 17 -4 28 -9 24 -6 -3 -14 2 -18 10 -5 9 -12 12 -16 9z"/>
</g>
</svg>
