<?xml version="1.0" standalone="no"?>
<!DOCTYPE svg PUBLIC "-//W3C//DTD SVG 20010904//EN"
 "http://www.w3.org/TR/2001/REC-SVG-20010904/DTD/svg10.dtd">
<svg version="1.0" xmlns="http://www.w3.org/2000/svg"
 width="560.000000pt" height="700.000000pt" viewBox="0 0 560.000000 700.000000"
 preserveAspectRatio="xMidYMid meet">
<metadata>
Created by potrace 1.16, written by Peter Selinger 2001-2019
</metadata>
<g transform="translate(0.000000,700.000000) scale(0.100000,-0.100000)"
fill="#000000" stroke="none">
<path d="M2640 6371 c-31 -16 -36 -24 -42 -72 -4 -30 -9 -353 -11 -719 -4
-595 -6 -671 -21 -718 -15 -43 -38 -72 -141 -175 -67 -68 -126 -134 -130 -146
-3 -11 -10 -21 -15 -21 -5 0 -12 -10 -16 -22 -3 -13 -12 -30 -18 -38 -42 -53
-89 -251 -84 -350 l3 -65 35 0 35 0 12 118 c11 101 18 129 51 200 40 86 122
186 173 213 33 17 41 1 12 -22 -17 -13 -17 -14 2 -8 20 6 20 5 1 -10 -11 -9
-23 -16 -26 -16 -3 0 -6 -9 -7 -20 -2 -23 -44 -113 -55 -118 -5 -2 -8 -12 -8
-22 0 -10 -4 -21 -9 -24 -12 -8 -21 -62 -29 -175 -6 -81 -5 -94 10 -102 9 -5
213 -9 453 -9 313 0 446 -3 474 -12 43 -14 40 0 43 -165 1 -36 4 -43 22 -45
12 -1 -100 -5 -249 -8 l-270 -5 -5 -82 c-3 -44 -2 -79 2 -77 3 2 13 1 22 -2
13 -5 12 -10 -7 -36 -22 -29 -22 -30 -3 -44 11 -7 22 -11 25 -8 3 3 -1 9 -9
14 -21 13 -5 24 40 26 26 1 44 -4 52 -14 11 -13 10 -15 -10 -10 -12 4 -20 2
-16 -3 3 -5 12 -9 20 -9 8 0 14 -5 14 -11 0 -7 -29 -9 -89 -6 l-89 4 -7 -35
c-3 -19 -4 -37 -1 -40 3 -3 6 2 6 11 0 10 5 17 10 17 6 0 10 -7 10 -15 0 -24
29 -30 45 -9 8 11 15 14 15 7 0 -7 12 -19 28 -27 16 -9 21 -15 11 -16 -8 0
-27 -6 -43 -12 -26 -13 -27 -15 -23 -85 2 -40 5 -75 8 -77 2 -3 115 -8 249
-12 135 -3 247 -8 249 -10 2 -2 -5 -7 -15 -11 -35 -12 -46 -43 -15 -43 10 0
21 -7 25 -15 4 -12 -3 -15 -29 -15 -57 0 -42 -31 15 -32 18 -1 27 -5 23 -12
-4 -6 -8 -60 -9 -121 -10 -447 -26 -756 -50 -965 -9 -74 -17 -140 -19 -146 -6
-20 -78 -24 -489 -30 l-398 -6 7 -482 c4 -264 8 -493 10 -508 3 -25 -11 -40
-40 -42 -6 -1 -10 -33 -10 -73 -1 -39 2 -70 5 -69 3 2 14 0 25 -5 16 -6 14 -8
-12 -8 -20 -1 -39 7 -51 20 -19 19 -20 46 -26 527 -6 526 -11 651 -25 665 -5
5 -21 7 -37 5 l-27 -3 1 -125 c15 -1112 12 -1052 48 -1085 37 -35 162 -55 399
-66 350 -15 712 11 782 57 12 8 27 23 33 33 6 12 14 284 21 728 6 389 13 726
14 748 8 119 26 1637 23 1850 -4 241 -5 253 -31 324 -52 144 -109 226 -245
355 -45 44 -95 100 -110 125 l-26 45 -3 685 c-4 692 -5 748 -25 788 -17 35
-60 43 -237 43 -143 0 -171 -3 -201 -19z m686 -2646 c6 -2 11 -26 13 -54 l2
-52 -28 7 c-15 4 -62 24 -103 45 -41 22 -80 39 -86 39 -6 0 -30 -18 -51 -41
l-40 -41 -61 12 -62 13 0 37 c0 20 3 39 6 42 5 6 389 -1 410 -7z m-180 -240
c35 -14 36 -16 29 -55 -6 -36 -5 -40 15 -40 12 0 31 -5 43 -12 12 -7 31 -13
41 -15 56 -10 10 -13 -167 -13 l-197 0 0 39 c0 43 14 54 45 38 18 -10 18 -10
-5 -19 -21 -8 -22 -10 -8 -24 10 -11 23 -14 38 -9 22 7 23 24 5 69 -14 34 29
14 45 -21 8 -18 21 -33 28 -33 7 0 20 -7 29 -16 22 -21 35 -5 36 47 2 34 -1
44 -13 43 -9 -1 -17 7 -17 17 -2 23 7 23 53 4z"/>
</g>
</svg>
