<?xml version="1.0" standalone="no"?>
<!DOCTYPE svg PUBLIC "-//W3C//DTD SVG 20010904//EN"
 "http://www.w3.org/TR/2001/REC-SVG-20010904/DTD/svg10.dtd">
<svg version="1.0" xmlns="http://www.w3.org/2000/svg"
 width="1000.000000pt" height="1000.000000pt" viewBox="0 0 1000.000000 1000.000000"
 preserveAspectRatio="xMidYMid meet">
<metadata>
Created by potrace 1.16, written by Peter Selinger 2001-2019
</metadata>
<g transform="translate(0.000000,1000.000000) scale(0.100000,-0.100000)"
fill="#000000" stroke="none">
<path d="M4438 9800 c-43 -5 -87 -14 -98 -20 -26 -14 -42 -54 -34 -86 4 -14
-1 -44 -10 -69 -14 -36 -16 -65 -11 -167 4 -68 7 -539 8 -1048 l2 -925 -24
-79 c-12 -44 -33 -96 -46 -116 -13 -20 -81 -90 -152 -155 -143 -132 -244 -238
-290 -305 -62 -92 -126 -236 -165 -375 -22 -77 -23 -95 -23 -460 0 -407 12
-1399 20 -1630 3 -77 7 -336 10 -575 9 -661 24 -1638 35 -2190 6 -272 10 -580
10 -685 1 -270 6 -314 44 -372 76 -116 196 -134 918 -137 191 -1 402 2 470 6
509 30 552 40 614 146 l28 47 7 510 c7 477 22 1335 34 1910 3 138 10 565 15
950 5 385 12 826 15 980 18 1022 18 1328 1 1420 -31 166 -114 369 -199 484
-59 81 -180 204 -273 276 -95 75 -135 119 -168 183 -60 118 -58 86 -66 1077
-6 754 -5 914 7 932 19 32 18 249 -2 283 -8 14 -14 44 -15 67 0 65 -14 88 -62
108 -37 15 -79 19 -283 21 -132 1 -275 -1 -317 -6z m157 -225 c-16 -8 -25 -14
-20 -15 6 0 2 -5 -7 -11 -10 -5 -18 -21 -18 -34 0 -13 -5 -25 -12 -27 -8 -3
-4 -12 10 -26 12 -12 22 -27 22 -33 0 -7 8 -18 18 -26 9 -8 11 -12 5 -8 -7 3
-13 1 -13 -5 0 -6 7 -13 15 -16 37 -14 8 -24 -70 -24 -81 0 -109 11 -64 25 12
4 18 10 13 14 -13 9 -10 54 4 59 7 2 9 9 5 15 -8 13 -9 19 -11 59 -1 15 -9 33
-17 42 -14 13 -12 15 17 19 18 2 60 4 93 5 59 0 59 0 30 -13z m32 -315 c1 -23
-2 -38 -8 -35 -5 4 -9 16 -10 28 l0 22 -9 -22 c-5 -12 -5 -35 0 -52 5 -18 5
-33 0 -36 -5 -3 -5 -16 0 -31 6 -14 6 -23 2 -20 -4 2 -8 -22 -7 -55 0 -32 3
-59 6 -59 10 0 25 -44 21 -63 -3 -14 -7 -16 -18 -6 -12 10 -13 6 -8 -21 6 -30
5 -32 -14 -26 -16 5 -28 0 -46 -18 -25 -28 -47 -36 -25 -10 11 14 11 18 -4 29
-12 8 -14 15 -8 20 6 3 11 1 11 -6 0 -7 3 -9 6 -6 4 4 -1 18 -10 32 -20 30
-14 60 9 51 9 -3 15 0 15 10 0 8 -6 17 -12 19 -8 3 -14 29 -16 67 -1 34 -8 68
-14 75 -9 11 -8 17 3 24 9 6 10 12 4 17 -5 4 -10 16 -11 27 0 11 -3 35 -7 53
l-6 32 77 0 78 0 1 -40z m-23 -411 c14 -11 26 -27 26 -35 0 -18 -14 -18 -30 1
-7 8 -18 15 -26 15 -23 0 -11 -44 29 -98 21 -29 37 -60 35 -69 -2 -11 -12 -3
-31 26 -16 24 -30 41 -33 38 -6 -5 22 -126 47 -201 20 -64 23 -86 11 -86 -8 0
-52 122 -75 210 -32 119 -29 220 6 220 8 0 26 -9 41 -21z m-82 -131 c0 -7 2
-17 2 -23 1 -5 5 -15 9 -22 4 -6 3 -14 -3 -18 -5 -3 -10 -11 -10 -16 0 -6 4
-8 9 -5 11 7 21 -17 21 -48 0 -12 4 -26 10 -32 5 -5 14 -32 19 -59 8 -42 7
-52 -6 -62 -12 -9 -20 -10 -30 -2 -10 9 -13 8 -12 -2 1 -22 17 -57 18 -39 1
12 4 12 17 -2 20 -20 11 -38 -16 -31 -16 4 -19 2 -14 -11 9 -23 -8 -20 -30 6
-13 14 -15 23 -8 26 7 2 12 8 12 13 0 4 -7 5 -17 2 -10 -4 -14 -3 -9 5 3 6 8
42 10 80 2 44 10 79 21 95 9 15 13 27 7 27 -6 0 -13 -6 -16 -12 -3 -7 -4 8 -2
34 1 26 -1 45 -6 42 -4 -3 -8 -1 -8 5 0 5 7 14 16 19 9 5 14 15 10 21 -4 6
-12 9 -17 6 -5 -4 -9 -1 -9 4 0 15 30 14 32 -1z m118 -835 c0 -104 2 -231 4
-283 2 -52 2 -112 -1 -132 -5 -34 -8 -37 -52 -47 -57 -13 -118 -17 -127 -8 -4
3 -7 149 -8 324 l-1 318 30 6 c17 4 58 7 93 8 l62 1 0 -187z m-499 -1282 c-16
-4 -29 -19 -37 -41 -12 -33 -19 -100 -7 -72 2 6 11 12 19 12 8 0 14 4 14 9 0
15 49 61 65 61 8 0 15 5 15 10 0 6 7 10 16 10 8 0 12 5 9 10 -10 16 108 12
146 -5 19 -8 30 -14 25 -15 -5 0 3 -9 18 -21 21 -17 24 -24 16 -40 -9 -15 -7
-19 7 -20 15 0 15 -2 3 -7 -8 -4 -16 -14 -18 -22 -2 -8 -12 -33 -22 -56 -52
-114 -61 -354 -13 -354 8 0 11 -4 8 -10 -3 -5 0 -10 8 -10 11 0 13 11 11 48
-3 33 -1 43 6 32 11 -17 12 -15 15 95 1 39 5 104 10 145 7 68 6 73 -9 61 -24
-20 -19 -5 7 21 26 27 47 71 47 98 0 15 -7 20 -27 20 -16 0 -35 5 -43 10 -11
7 -3 10 30 10 65 0 76 -10 57 -51 -30 -68 -48 -216 -48 -396 l1 -173 -226 0
-226 0 3 188 c2 103 6 203 10 222 21 96 34 139 55 188 20 45 26 52 51 51 27
-1 27 -1 4 -8z m293 -2437 c61 -50 67 -59 36 -51 -21 5 -28 -7 -10 -18 5 -3
15 -16 21 -28 7 -14 -4 -7 -29 18 -49 48 -93 60 -125 35 -21 -17 -22 -25 -21
-167 0 -81 3 -172 7 -200 14 -95 -9 -56 -28 47 -19 110 -22 310 -5 357 26 68
77 70 154 7z m-23 -420 c10 -13 10 -19 0 -36 -11 -17 -9 -24 10 -44 19 -20 20
-24 6 -24 -9 0 -24 11 -33 25 -9 14 -20 25 -25 25 -5 0 -7 -11 -3 -25 5 -21 3
-25 -15 -25 -12 0 -21 -1 -21 -2 0 -2 7 -28 15 -58 9 -30 28 -118 44 -195 16
-77 46 -189 67 -250 35 -103 50 -190 31 -178 -5 3 -7 16 -4 29 2 13 1 24 -3
24 -20 0 -108 309 -150 524 -17 89 -18 100 -4 114 11 11 15 30 12 64 -3 48 -3
48 28 48 17 0 37 -7 45 -16z m-14 -1503 l72 -1 -3 -441 c-2 -242 -6 -442 -9
-445 -2 -3 -1 -20 3 -38 4 -18 4 -54 0 -80 -4 -26 -5 -58 -3 -70 3 -13 -1 -34
-7 -47 -7 -13 -9 -24 -4 -26 5 -2 8 -22 7 -45 -1 -24 -3 -105 -4 -180 -1 -76
-5 -135 -8 -132 -3 3 -5 20 -6 39 0 19 -4 34 -10 32 -5 -1 -10 -6 -11 -12 -2
-29 -29 -95 -40 -99 -7 -3 -29 0 -48 5 -20 6 -41 7 -46 4 -6 -3 -10 -1 -10 5
0 12 -55 5 -75 -9 -5 -4 -24 -7 -42 -5 -18 1 -32 -1 -31 -5 3 -28 -3 -33 -18
-13 -8 12 -24 22 -35 22 -10 0 -19 4 -19 10 0 5 13 7 31 3 25 -5 31 -3 27 8
-2 8 -15 15 -27 17 -18 3 -21 8 -17 30 4 15 6 83 7 152 0 119 -11 1265 -12
1278 -1 4 -1 18 0 32 l1 25 132 -6 c73 -4 165 -7 205 -8z"/>
</g>
</svg>
