<?xml version="1.0" standalone="no"?>
<!DOCTYPE svg PUBLIC "-//W3C//DTD SVG 20010904//EN"
 "http://www.w3.org/TR/2001/REC-SVG-20010904/DTD/svg10.dtd">
<svg version="1.0" xmlns="http://www.w3.org/2000/svg"
 width="154.000000pt" height="326.000000pt" viewBox="0 0 154.000000 326.000000"
 preserveAspectRatio="xMidYMid meet">
<metadata>
Created by potrace 1.16, written by Peter Selinger 2001-2019
</metadata>
<g transform="translate(0.000000,326.000000) scale(0.100000,-0.100000)"
fill="#000000" stroke="none">
<path d="M829 3041 c14 -4 26 -12 29 -19 3 -9 -21 -12 -92 -12 -86 0 -119 9
-83 23 7 3 6 6 -5 6 -9 1 -20 -3 -23 -9 -3 -5 -8 -154 -11 -332 -2 -177 -9
-339 -14 -360 -7 -26 -31 -58 -75 -101 -42 -41 -74 -85 -91 -122 l-27 -58 2
-881 c1 -551 5 -893 12 -912 17 -55 36 -59 310 -59 245 0 249 0 271 23 23 22
23 25 30 405 4 210 12 605 18 879 11 523 9 558 -32 628 -12 19 -47 62 -79 95
-32 33 -63 74 -69 90 -8 19 -13 148 -15 363 -3 238 -7 337 -16 348 -6 8 -23
14 -38 13 l-26 -1 24 -7z m28 -121 c1 -41 4 -148 7 -237 5 -157 5 -163 -14
-163 -18 0 -20 -7 -20 -66 0 -46 -5 -70 -15 -81 -23 -23 -29 -10 -32 70 -2 64
-4 72 -22 75 -19 3 -20 -3 -23 -80 -3 -77 -5 -83 -25 -86 -22 -3 -23 -1 -23
76 0 62 -3 81 -15 86 -14 5 -15 36 -11 243 2 131 5 239 5 241 1 1 43 1 94 0
l92 -3 2 -75z m-204 -813 c16 0 24 -3 17 -7 -9 -5 -9 -9 -1 -14 6 -4 15 -5 20
-2 12 8 21 -30 21 -96 l0 -58 -81 0 -82 0 5 71 c3 39 10 74 15 78 5 3 13 14
16 25 5 13 12 16 25 10 9 -4 30 -7 45 -7z m228 -21 c-10 -11 -7 -14 16 -13 15
1 31 6 34 11 13 17 32 -39 32 -92 0 -65 -10 -74 -78 -68 -27 3 -53 6 -57 6 -5
0 -8 33 -8 74 l0 74 30 7 c17 4 30 11 30 17 0 6 3 8 6 5 4 -4 2 -13 -5 -21z
m101 -413 c18 -15 34 -27 34 -27 1 -1 5 -16 9 -35 7 -33 6 -33 -19 -27 -24 6
-26 4 -26 -24 0 -22 5 -30 18 -30 13 0 23 -13 32 -40 7 -22 10 -43 7 -47 -4
-3 -7 3 -7 15 0 12 -10 26 -22 33 -18 9 -21 9 -11 -1 6 -7 9 -28 6 -49 -3 -26
-2 -32 6 -21 17 25 22 5 9 -35 -15 -44 -37 -57 -45 -25 -3 12 -11 19 -19 16
-7 -3 -16 -1 -19 4 -4 6 -15 10 -26 10 -10 0 -19 4 -19 9 0 4 -24 12 -52 17
-48 8 -53 11 -50 33 l4 24 -85 -6 c-47 -4 -92 -10 -100 -13 -10 -3 -16 3 -19
20 -3 15 -1 23 5 19 5 -3 7 0 5 8 -3 8 -14 13 -24 11 -16 -2 -17 -1 -4 8 11 9
12 13 3 17 -20 7 -16 43 5 43 9 0 28 12 41 25 37 39 105 27 99 -18 -1 -12 1
-28 5 -34 5 -8 3 -13 -7 -13 -9 0 -16 -4 -16 -10 0 -5 5 -10 10 -10 6 0 10 -7
10 -15 0 -25 72 -17 93 12 10 12 14 23 9 23 -5 0 -8 14 -6 32 3 21 1 29 -6 22
-12 -12 -80 -6 -80 7 0 5 17 9 38 9 30 1 34 3 20 11 -30 17 -21 32 15 25 24
-4 44 1 82 23 28 16 53 29 57 30 3 1 21 -11 40 -26z"/>
</g>
</svg>
